<?xml version="1.0" encoding="iso-8859-1"?>
<!-- Generator: Adobe Illustrator 19.0.0, SVG Export Plug-In . SVG Version: 6.00 Build 0)  -->
<svg version="1.1" id="Layer_1" xmlns="http://www.w3.org/2000/svg" xmlns:xlink="http://www.w3.org/1999/xlink" x="0px" y="0px"
	 viewBox="0 0 512 512" style="enable-background:new 0 0 512 512;" xml:space="preserve">
<g>
	<g>
		<path d="M429.776,240H92.464C83.456,240,56,240,56,262.064v27.328C56,307.072,80.112,320,92.656,320h337.12
			C445.472,320,456,304.176,456,289.392v-27.328C456,253.824,452.624,240,429.776,240z M423.632,288l-329.76,0.096
			c-1.408-0.32-4.048-1.728-5.872-3.04v-12.992c1.296-0.048,2.832-0.064,4.672-0.064h331.2L423.632,288z"/>
	</g>
</g>
<g>
	<g>
		<path d="M152,288h-48c-8.848,0-16,7.168-16,16v192c0,8.832,7.152,16,16,16h48c8.848,0,16-7.168,16-16V304
			C168,295.168,160.848,288,152,288z M136,480h-16V320h16V480z"/>
	</g>
</g>
<g>
	<g>
		<path d="M392,288h-48c-8.848,0-16,7.168-16,16v192c0,8.832,7.152,16,16,16h48c8.848,0,16-7.168,16-16V304
			C408,295.168,400.848,288,392,288z M376,480h-16V320h16V480z"/>
	</g>
</g>
<g>
	<g>
		<path d="M344,336H152c-8.848,0-16,7.168-16,16c0,8.832,7.152,16,16,16h192c8.848,0,16-7.168,16-16
			C360,343.168,352.848,336,344,336z"/>
	</g>
</g>
<g>
	<g>
		<path d="M168,240h-16V128c0-8.832-7.152-16-16-16s-16,7.168-16,16v128c0,8.832,7.152,16,16,16h32c8.848,0,16-7.168,16-16
			C184,247.168,176.848,240,168,240z"/>
	</g>
</g>
<g>
	<g>
		<path d="M376,112c-8.848,0-16,7.168-16,16v112h-16c-8.848,0-16,7.168-16,16c0,8.832,7.152,16,16,16h32c8.848,0,16-7.168,16-16V128
			C392,119.168,384.848,112,376,112z"/>
	</g>
</g>
<g>
	<g>
		<path d="M408,0H104c-8.848,0-16,7.168-16,16v112c0,8.832,7.152,16,16,16h304c8.848,0,16-7.168,16-16V16C424,7.168,416.848,0,408,0
			z M392,112H120V32h272V112z"/>
	</g>
</g>
<g>
</g>
<g>
</g>
<g>
</g>
<g>
</g>
<g>
</g>
<g>
</g>
<g>
</g>
<g>
</g>
<g>
</g>
<g>
</g>
<g>
</g>
<g>
</g>
<g>
</g>
<g>
</g>
<g>
</g>
</svg>
